<svg id="icons" xmlns="http://www.w3.org/2000/svg" viewBox="0 0 511.99 512"><defs><style>.cls-1{fill:#fff;}</style></defs><title>3d-modeling</title><path class="cls-1" d="M392,214.51V128a7.86,7.86,0,0,0-.62-3.06,7.5,7.5,0,0,0-1.59-2.4c-.05-.07-.07-.15-.13-.2a3.5,3.5,0,0,0-.35-.23,7.15,7.15,0,0,0-5-2c-.13,0-.22-.07-.35-.07H297.49C285,.09,263.23,0,256,0a8.13,8.13,0,0,0-8.18,8,7.83,7.83,0,0,0,7.83,8c4.08,1.6,17.21,24.4,25.73,104H230.64c2.54-23.88,5.77-45,9.51-62.08l.38,1a8,8,0,1,0,14.93-5.72l-9.17-24c0-.12-.16-.2-.2-.32a8.68,8.68,0,0,0-.48-.84c-.11-.18-.12-.4-.24-.56s-.31-.27-.45-.44-.38-.49-.6-.71a8.85,8.85,0,0,0-.76-.57A7.41,7.41,0,0,0,242.5,25a6.59,6.59,0,0,0-.8-.39c-.12,0-.2-.15-.33-.19s-.38,0-.57-.07a7.15,7.15,0,0,0-1.21-.22,6.64,6.64,0,0,0-.89-.05,6.54,6.54,0,0,0-1,.09,8,8,0,0,0-1.15.27,5.81,5.81,0,0,0-.58.09c-.11,0-.18.15-.29.19a8.32,8.32,0,0,0-.93.5c-.17.11-.36.12-.51.23l-22.82,16a8,8,0,1,0,9.18,13.08l4.63-3.24c-4.32,18.76-7.95,42-10.75,68.66H200c-.06,0-.1,0-.17,0a8,8,0,0,0-2.89.59,7.73,7.73,0,0,0-2.42,1.6c-.06,0-.14.07-.18.12l-72,72.12a7.92,7.92,0,0,0-2.3,5.83v14.27C.09,227,0,248.76,0,256c0,23.21,58.77,35.18,120,41.38V384a8,8,0,0,0,8,8h86.61c6.19,61.23,18.17,120,41.37,120,7.23,0,28.95-.09,41.49-120H312a8.16,8.16,0,0,0,5.67-2.35l72-72a7.47,7.47,0,0,0,.84-1.26,8.36,8.36,0,0,0,.86-1.3,7.89,7.89,0,0,0,.62-3.17v-14.4c26.63-2.8,49.94-6.43,68.7-10.76l-3.24,4.63a8,8,0,0,0,2,11.14,8,8,0,0,0,11.13-2l16-22.82c.12-.17.13-.35.23-.52a8.92,8.92,0,0,0,.49-.85,2.53,2.53,0,0,0,.2-.36c.08-.19,0-.4.11-.6a7.36,7.36,0,0,0,.25-1.13,6.38,6.38,0,0,0,.1-1,6.32,6.32,0,0,0-.06-1,9.1,9.1,0,0,0-.21-1.16c0-.19,0-.38-.07-.58s-.15-.2-.19-.32a7.86,7.86,0,0,0-.4-.83,9,9,0,0,0-.69-1.05c-.19-.24-.35-.51-.56-.73a7.12,7.12,0,0,0-.72-.62c-.17-.13-.25-.32-.43-.45a6,6,0,0,0-.58-.25,7.22,7.22,0,0,0-.82-.46c-.13-.05-.21-.17-.33-.21l-24-9.17a8,8,0,1,0-5.72,14.93l1,.38c-17.14,3.76-38.22,7-62.13,9.51V230.62c79.64,8.51,102.47,21.64,104,25.37a8,8,0,0,0,16,0c0-7.22-.08-29-120-41.48ZM364.7,136l-56,56.11H225.39c.85-19.66,2.1-38.49,3.68-56.11ZM304,376H229c-1.95-21.44-3.46-45.65-4.28-72.5,17.35.43,29.16.46,31.27.46q24.54,0,48-.76Zm-48-88q-16.38,0-31.67-.32c-.21-10.22-.33-20.76-.33-31.68,0-16.27.28-32.3.78-47.93H304v79.15c-15.64.5-31.68.78-48,.78ZM136,208.07h72.74Q208,231.46,208,256c0,2.11,0,13.92.46,31.27-26.83-.83-51-2.32-72.44-4.25Zm73.32-16H147.29l56-56.11h9.61C211.38,153.57,210.18,172.41,209.34,192.07ZM15.94,256.36c1.6-4.08,24.42-17.22,104.08-25.74v50.82c-65.36-7-101.16-18.08-104.08-25.08ZM136,376V298.88c26.23,2.23,52,3.49,72.9,4.19.71,20.95,2,46.71,4.2,73H136Zm120.34,120c-7.46-2.92-18.68-38.7-25.76-104h50.78c-8.53,79.62-21.64,102.42-25,104ZM376,308.71l-56,56V302.66c19.63-.84,38.44-2,56-3.58Zm-56-22.1V203.39l56-56.09V282.94c-17.58,1.57-36.39,2.81-56,3.67Z" transform="translate(0 0)"/></svg>