<svg id="Capa_1" data-name="Capa 1" xmlns="http://www.w3.org/2000/svg" viewBox="0 0 480 479.97"><defs><style>.cls-1{fill:#fff;}</style></defs><title>drawing</title><path class="cls-1" d="M472,96H448v16h16V344.47l-35.35-25.26-9.3,13L464,364.13V384H392a8,8,0,0,0-8,8v72H40a24,24,0,0,1,0-48H56a8,8,0,0,0,8-8V355.66l112-97.09,106.79,91.51a8,8,0,0,0,10.51-.09l54-48-10.62-12-48.8,43.36L181.19,242a8,8,0,0,0-10.4,0L64,334.49V112H336V96H64V56a8,8,0,0,0-8-8H40A40.05,40.05,0,0,0,0,88V440a40.05,40.05,0,0,0,40,40H392a8.05,8.05,0,0,0,5.66-2.34l80-80a8,8,0,0,0,1.61-2.34c.11-.25.17-.49.26-.74a8.34,8.34,0,0,0,.42-2.09c0-.16.09-.32.09-.48V104a8,8,0,0,0-8-8ZM16,104V88A24,24,0,0,1,40,64h8V400H40a39.87,39.87,0,0,0-24,8ZM400,452.69V400h52.69Z" transform="translate(0 -0.03)"/><path class="cls-1" d="M224,200a48,48,0,1,0,48-48A48,48,0,0,0,224,200Zm80,0a32,32,0,1,1-32-32A32,32,0,0,1,304,200Z" transform="translate(0 -0.03)"/><path class="cls-1" d="M114.88,337.86l48-40,10.24,12.29-48,40Z" transform="translate(0 -0.03)"/><path class="cls-1" d="M322.32,354.35l24-24,11.31,11.31-24,24Z" transform="translate(0 -0.03)"/><path class="cls-1" d="M400,352v-21.6l30.66-46A8.08,8.08,0,0,0,432,280V40a40,40,0,1,0-80,0V280a8,8,0,0,0,1.34,4.44l30.65,46V352Zm16-80H400V96h16ZM368,40a24,24,0,1,1,48,0v8H368Zm0,24h48V80H368Zm0,32h16V272H368Zm6.94,192H409L392,313.61Z" transform="translate(0 -0.03)"/></svg>