<svg id="Capa_1" data-name="Capa 1" xmlns="http://www.w3.org/2000/svg" viewBox="0 0 512 480"><defs><style>.cls-1{fill:#fff;}</style></defs><title>game</title><path class="cls-1" d="M224,264h64v16H224Z" transform="translate(0 -16)"/><path class="cls-1" d="M248,240h16v64H248Z" transform="translate(0 -16)"/><path class="cls-1" d="M456,264h16v16H456Z" transform="translate(0 -16)"/><path class="cls-1" d="M392,264h16v16H392Z" transform="translate(0 -16)"/><path class="cls-1" d="M424,232h16v16H424Z" transform="translate(0 -16)"/><path class="cls-1" d="M424,296h16v16H424Z" transform="translate(0 -16)"/><path class="cls-1" d="M73.75,141l-36-45,36-45,12.5,10-28,35,28,35Z" transform="translate(0 -16)"/><path class="cls-1" d="M198.25,141l-12.5-10,28-35-28-35,12.5-10,36,45Z" transform="translate(0 -16)"/><path class="cls-1" d="M102,122.72l56-64,12,10.53-56,64Z" transform="translate(0 -16)"/><path class="cls-1" d="M64,352H32V320H48v16H64Z" transform="translate(0 -16)"/><path class="cls-1" d="M488,16H24A24,24,0,0,0,0,40V360a24,24,0,0,0,24,24H192v40a24,24,0,0,1-24,24H128v48H384V448H344a24,24,0,0,1-24-24V384H488a24,24,0,0,0,24-24V40A24,24,0,0,0,488,16ZM368,464v16H144V464ZM256,432.34a24,24,0,0,0,24-24V384h24v40a39.56,39.56,0,0,0,8.21,24H199.79A39.56,39.56,0,0,0,208,424V384h24v24.34A24,24,0,0,0,256,432.34Zm-8-24V384h16v24.34a8,8,0,0,1-16,0ZM496,360a8,8,0,0,1-8,8H24a8,8,0,0,1-8-8V288H177.6a79.94,79.94,0,0,0,147.59,24h37.6A79.78,79.78,0,0,0,496,319.79Zm-64-24a63.65,63.65,0,0,1-57.27-35.57L372.52,296h-57l-2.21,4.43A64,64,0,1,1,256,208H432a64,64,0,0,1,0,128Zm64-111.79A79.82,79.82,0,0,0,432,192H256a80.09,80.09,0,0,0-80,80H16V40a8,8,0,0,1,8-8H488a8,8,0,0,1,8,8Z" transform="translate(0 -16)"/><path class="cls-1" d="M328,264h32v16H328Z" transform="translate(0 -16)"/><path class="cls-1" d="M240,64h64V80H240Z" transform="translate(0 -16)"/><path class="cls-1" d="M336,64H464V80H336Z" transform="translate(0 -16)"/><path class="cls-1" d="M352,96H464v16H352Z" transform="translate(0 -16)"/><path class="cls-1" d="M256,96h64v16H256Z" transform="translate(0 -16)"/><path class="cls-1" d="M240,128H400v16H240Z" transform="translate(0 -16)"/><path class="cls-1" d="M432,128h32v16H432Z" transform="translate(0 -16)"/><path class="cls-1" d="M48,160h80v16H48Z" transform="translate(0 -16)"/><path class="cls-1" d="M160,160H312v16H160Z" transform="translate(0 -16)"/><path class="cls-1" d="M336,160H464v16H336Z" transform="translate(0 -16)"/><path class="cls-1" d="M48,192H176v16H48Z" transform="translate(0 -16)"/><path class="cls-1" d="M48,224h64v16H48Z" transform="translate(0 -16)"/><path class="cls-1" d="M128,224h32v16H128Z" transform="translate(0 -16)"/></svg>