<svg id="Capa_1" data-name="Capa 1" xmlns="http://www.w3.org/2000/svg" viewBox="0 0 468.72 512"><defs><style>.cls-1{fill:#fff;}</style></defs><title>sculpting</title><path class="cls-1" d="M355.05,436.56H305.39c-.61-28.38,2-69.34,12.24-82.4,5.07-6.48,14.37-10.86,28.42-13.37a36.2,36.2,0,0,0,29.79-36.47c0-.18,0-.38,0-.61-1.11-30.51-10.35-72-48-97.17a107.31,107.31,0,0,0-29-13.52c30.29-42.75,38.34-95.93,19.6-136.74C302,20.49,267.34,0,223.46,0h-1.28c-44,0-78.56,20.49-95,56.27-18.74,40.81-10.7,94,19.59,136.75a107.43,107.43,0,0,0-29,13.52c-37.72,25.17-46.92,66.84-48,97.37,0,.11,0,.22,0,.33a36.21,36.21,0,0,0,29.79,36.55c14,2.51,23.35,6.89,28.42,13.37,10.21,13,12.84,54,12.23,82.4H90.5a35.73,35.73,0,0,0-35.69,35.69V502a10,10,0,0,0,10,10H380.75a10,10,0,0,0,10-10V472.25A35.73,35.73,0,0,0,355.05,436.56ZM145.36,64.63C158.58,35.83,185.84,20,222.26,20h1.13c36.32,0,63.59,15.84,76.82,44.63,17.5,38.1,6.72,89.7-26.83,128.41l0,0a167.44,167.44,0,0,1-47.2,37.5,7.06,7.06,0,0,1-6.75,0,167.09,167.09,0,0,1-47.2-37.5h0C138.64,154.34,127.85,102.73,145.36,64.63ZM370.75,492H74.81V472.25A15.71,15.71,0,0,1,90.5,456.56h92.28a10,10,0,1,0,0-20H160.16c.46-22.86-.43-74.22-16.47-94.72-8.25-10.54-21.55-17.32-40.66-20.73a16.12,16.12,0,0,1-13.32-16.23c0-.11,0-.21,0-.32,2.72-76.65,55.27-91.63,70.94-94.39a188.11,188.11,0,0,0,49.22,38,27,27,0,0,0,25.77,0,187.78,187.78,0,0,0,49.23-38A85,85,0,0,1,314,221.33c-14.57,7.28-22.6,21-22.62,38.59V260c0,8.64-3.73,14.55-11.71,18.59a10,10,0,1,0,9,17.85c11.44-5.79,18.73-14.61,21.46-25.84,3.42.66,7.16,1.92,9.76,4.24,1.58,1.41,3.7,3.93,3.91,9.53a10,10,0,0,0,10,9.62h.39a10,10,0,0,0,9.61-10.38c-.36-9.64-4-17.83-10.56-23.68-6.29-5.63-14.1-8.14-20.51-9.22a19.22,19.22,0,0,1,9.82-11.31,32.37,32.37,0,0,1,9.4-3c12.54,14.1,22.74,35.58,23.89,68.25v.25a16.11,16.11,0,0,1-13.31,16.24c-19.12,3.41-32.41,10.19-40.65,20.73-16.05,20.5-16.94,71.86-16.48,94.72H262.78a10,10,0,1,0,0,20h92.28a15.71,15.71,0,0,1,15.69,15.69Z" transform="translate(-22)"/><path class="cls-1" d="M468.73,85.67l-.57-.7a23.45,23.45,0,0,0-25.68-7.42L425,83.49l-2.06-6.08a25.9,25.9,0,0,0-49.06,16.64l2.06,6.08-17.53,5.94a23.54,23.54,0,0,0-15.87,21.61l0,.89q0,1.26,0,2.52a99,99,0,0,0,22.48,62.73,23.47,23.47,0,0,0,18.13,8.54,23.15,23.15,0,0,0,7.46-1.23l17.61-6,22,64.75a25.91,25.91,0,0,0,49.07-16.64l-22-64.75,17.63-6a23.43,23.43,0,0,0,15.85-21.33v0A98.86,98.86,0,0,0,468.73,85.67Zm-76,2A5.9,5.9,0,1,1,404,83.84L406,89.91,400,92l-5.12,1.74Zm67.44,162.06a5.91,5.91,0,0,1-3.7,7.49h0a5.82,5.82,0,0,1-4.5-.29,5.88,5.88,0,0,1-3-3.4l-22-64.75,3.54-1.2,7.64-2.59Zm10.47-99.19a3.42,3.42,0,0,1-.68,1.92,3.34,3.34,0,0,1-1.63,1.19l-26.85,9.1-.23.08-15.85,5.38-41.36,14a3.41,3.41,0,0,1-3.7-1.07,78.94,78.94,0,0,1-17.94-50c0-.66,0-1.32,0-2l0-.89a3.38,3.38,0,0,1,2.31-3.14l26.8-9.1.19-.06,17.54-6,39.59-13.42a3.36,3.36,0,0,1,3.71,1.08l.06.07.55.66A78.85,78.85,0,0,1,470.68,150.5Z" transform="translate(-22)"/><path class="cls-1" d="M70.82,165.55A25,25,0,0,0,94,149.75l12.44-31.68a16.52,16.52,0,0,0-9.32-21.39L75.86,88.32a16.51,16.51,0,0,0-21.38,9.32L42,129.33A25,25,0,0,0,50,158.14L22.7,227.62a10,10,0,0,0,18.61,7.31L68.6,165.45C69.34,165.52,70.08,165.55,70.82,165.55Zm-2.27-58.61h0Zm-7.9,29.7,11.16-28.43L86.57,114,75.41,142.44a4.92,4.92,0,0,1-6.36,2.77L63.42,143A4.9,4.9,0,0,1,60.65,136.64Z" transform="translate(-22)"/><path class="cls-1" d="M220,178.66h12.25a10,10,0,0,0,0-20h-8.64l3-30.92a10,10,0,1,0-19.9-1.95l-3.4,34.51A16.73,16.73,0,0,0,220,178.66Z" transform="translate(-22)"/><path class="cls-1" d="M222.78,436.56a10,10,0,0,0,0,20h0a10,10,0,0,0,0-20Z" transform="translate(-22)"/></svg>