<svg id="Layer_5" data-name="Layer 5" xmlns="http://www.w3.org/2000/svg" viewBox="0 0 496 496"><defs><style>.cls-1{fill:#fff;}</style></defs><title>smartphone</title><path class="cls-1" d="M248,40h48V56H248Z" transform="translate(-8 -8)"/><path class="cls-1" d="M216,40h16V56H216Z" transform="translate(-8 -8)"/><path class="cls-1" d="M172.69,424H168a16,16,0,0,0-16,16v16a16,16,0,0,0,16,16h4.69A15.86,15.86,0,0,0,184,467.31L203.31,448,184,428.69A15.86,15.86,0,0,0,172.69,424Zm0,32H168V440h4.69l8,8Z" transform="translate(-8 -8)"/><path class="cls-1" d="M264,424H248a16,16,0,0,0-16,16v16a16,16,0,0,0,16,16h16a16,16,0,0,0,16-16V440A16,16,0,0,0,264,424Zm-16,32V440h16v16Z" transform="translate(-8 -8)"/><path class="cls-1" d="M344,424h-4.69A15.86,15.86,0,0,0,328,428.69L308.69,448,328,467.31A15.86,15.86,0,0,0,339.31,472H344a16,16,0,0,0,16-16V440A16,16,0,0,0,344,424Zm-4.69,32-8-8,8-8H344v16Z" transform="translate(-8 -8)"/><path class="cls-1" d="M200,256a72,72,0,1,0-72,72A72.08,72.08,0,0,0,200,256ZM72,256a56,56,0,1,1,56,56A56.06,56.06,0,0,1,72,256Z" transform="translate(-8 -8)"/><path class="cls-1" d="M168,256a40,40,0,1,0-40,40A40,40,0,0,0,168,256Zm-64,0a24,24,0,1,1,24,24A24,24,0,0,1,104,256Z" transform="translate(-8 -8)"/><path class="cls-1" d="M408,168V48A40,40,0,0,0,368,8H144a40,40,0,0,0-40,40v88H97.78l-5.7,22.42c-2.55,1-5.11,2-7.65,3.2L64.51,149.78,21.78,192.51l11.84,19.91c-1.18,2.54-2.25,5.1-3.2,7.65L8,225.78v60.44l22.42,5.71c.95,2.55,2,5.11,3.2,7.65L21.78,319.5l42.73,42.73,19.92-11.84q3.81,1.77,7.65,3.2L97.78,376H104v88a40,40,0,0,0,40,40H368a40,40,0,0,0,40-40V360a96,96,0,0,0,0-192Zm80,96a79.57,79.57,0,0,1-13.56,44.5A71.54,71.54,0,0,0,435,269.29a40,40,0,1,0-54.08,0,71.54,71.54,0,0,0-39.4,39.21A80,80,0,1,1,488,264ZM384,240a24,24,0,1,1,24,24A24,24,0,0,1,384,240ZM152,376h6.22l5.7-22.42c2.55-.95,5.11-2,7.65-3.2l19.92,11.84,42.73-42.73-11.84-19.92q1.77-3.81,3.2-7.65l22.42-5.7V225.78l-22.42-5.71c-1-2.55-2-5.11-3.2-7.65l11.84-19.91-42.73-42.73-19.92,11.84q-3.81-1.77-7.65-3.2L158.22,136H152V88H360v93a95.78,95.78,0,0,0,0,166v45H152ZM120,48a24,24,0,0,1,24-24H368a24,24,0,0,1,24,24V169.45a95.85,95.85,0,0,0-16,4.15V72H136v64H120ZM87.74,334.18l-3.95-2L67,342.12,41.89,317l10-16.76-2-4a88.11,88.11,0,0,1-5.63-13.46l-1.35-4.23L24,273.78V238.22l18.83-4.79,1.35-4.22a88.7,88.7,0,0,1,5.64-13.47l2-4L41.88,195,67,169.89l16.76,10,4-2a88.11,88.11,0,0,1,13.46-5.63l4.23-1.35,4.8-18.84h35.56l4.79,18.83,4.22,1.35a88.28,88.28,0,0,1,13.47,5.64l3.94,2,16.76-10L214.1,195l-10,16.76,2,3.95a88.63,88.63,0,0,1,5.63,13.47l1.35,4.22,18.85,4.8v35.56l-18.83,4.79-1.35,4.22a88.28,88.28,0,0,1-5.64,13.47l-2,3.94,10,16.76L189,342.1l-16.76-10-3.95,2a88.11,88.11,0,0,1-13.46,5.63l-4.23,1.35L145.78,360H110.22l-4.79-18.83-4.22-1.35A87.86,87.86,0,0,1,87.74,334.18ZM392,464a24,24,0,0,1-24,24H144a24,24,0,0,1-24-24V376h16v32H376V354.4a94.89,94.89,0,0,0,16,4.15ZM353.72,322.6a55.88,55.88,0,0,1,108.56,0,79.54,79.54,0,0,1-108.56,0Z" transform="translate(-8 -8)"/><path class="cls-1" d="M248,99.06V204.94L353.89,152Zm16,25.88L318.11,152,264,179.06Z" transform="translate(-8 -8)"/></svg>