<svg id="Capa_1" data-name="Capa 1" xmlns="http://www.w3.org/2000/svg" viewBox="0 0 480 488"><defs><style>.cls-1{fill:#fff;}</style></defs><title>social-media-marketing</title><path class="cls-1" d="M296,432H280V353.6a8,8,0,0,0-16,0V432H56V272h66.56a8,8,0,0,0,0-16H48a8,8,0,0,0-8,8V432H24a8,8,0,0,0-8,8v16a40,40,0,0,0,40,40H264a40,40,0,0,0,40-40V440A8,8,0,0,0,296,432Zm-8,24a24,24,0,0,1-24,24H248v-8a8,8,0,0,0-16,0v8H88v-8a8,8,0,0,0-16,0v8H56a24,24,0,0,1-24-24v-8H288Z" transform="translate(-16 -8)"/><path class="cls-1" d="M432,64h16a8,8,0,0,0,0-16H432a24,24,0,0,0-24,24v8h-8a8,8,0,0,0,0,16h8v24a8,8,0,0,0,16,0V96h8a8,8,0,0,0,0-16h-8V72A8,8,0,0,1,432,64Z" transform="translate(-16 -8)"/><path class="cls-1" d="M472,16H376a24,24,0,0,0-24,24V56a8,8,0,0,0,16,0V40a8,8,0,0,1,8-8h96a8,8,0,0,1,8,8v96a8,8,0,0,1-8,8H376a8,8,0,0,1-8-8V88a8,8,0,0,0-16,0v48a24,24,0,0,0,24,24h96a24,24,0,0,0,24-24V40A24,24,0,0,0,472,16Z" transform="translate(-16 -8)"/><path class="cls-1" d="M392,336a32,32,0,1,0,32-32A32,32,0,0,0,392,336Zm48,0a16,16,0,1,1-16-16A16,16,0,0,1,440,336Z" transform="translate(-16 -8)"/><path class="cls-1" d="M472,264H376a24,24,0,0,0-24,24v96a24,24,0,0,0,24,24h96a24,24,0,0,0,24-24V368a8,8,0,0,0-16,0v16a8,8,0,0,1-8,8H376a8,8,0,0,1-8-8V288a8,8,0,0,1,8-8h96a8,8,0,0,1,8,8v48a8,8,0,0,0,16,0V288A24,24,0,0,0,472,264Z" transform="translate(-16 -8)"/><path class="cls-1" d="M195.76,110.8a8,8,0,0,0,7.84.32l48-24a8,8,0,0,0,0-14.24l-48-24A8,8,0,0,0,192,56v48A8,8,0,0,0,195.76,110.8ZM208,69l22.08,11L208,91Z" transform="translate(-16 -8)"/><path class="cls-1" d="M216,152a72,72,0,1,0-72-72A72,72,0,0,0,216,152Zm0-128a56,56,0,1,1-56,56A56,56,0,0,1,216,24Z" transform="translate(-16 -8)"/><path class="cls-1" d="M296,184a8,8,0,0,0,6.4-3.2l24-32a8,8,0,0,0-12.8-9.6l-24,32A8,8,0,0,0,296,184Z" transform="translate(-16 -8)"/><path class="cls-1" d="M313.6,212.8a8,8,0,0,0,11.2,1.6l32-24a8,8,0,1,0-9.6-12.8l-32,24a8,8,0,0,0-1.6,11.2Z" transform="translate(-16 -8)"/><path class="cls-1" d="M392,230.4a8,8,0,0,0-9.29-6.46l-.31.06-40,8a8,8,0,0,0,1.6,16h1.6l40-8a8,8,0,0,0,6.46-9.29Z" transform="translate(-16 -8)"/><path class="cls-1" d="M24,232h96a8,8,0,0,0,8-8V96a8,8,0,0,0-8-8H24a8,8,0,0,0-8,8V224A8,8,0,0,0,24,232Zm8-128h80V216H32Z" transform="translate(-16 -8)"/><path class="cls-1" d="M88,120H72a8,8,0,0,0,0,16H88a8,8,0,0,0,0-16Z" transform="translate(-16 -8)"/><path class="cls-1" d="M88,152H56a8,8,0,0,0,0,16H88a8,8,0,0,0,0-16Z" transform="translate(-16 -8)"/><path class="cls-1" d="M88,184H56a8,8,0,0,0,0,16H88a8,8,0,0,0,0-16Z" transform="translate(-16 -8)"/><path class="cls-1" d="M289,229.6a8,8,0,1,0-13.92,8l35.28,61-128,48h-1.2l-20.8,12-13.84,8a16,16,0,0,1-21.84-5.84l-16-27.68a16,16,0,0,1,6-21.12l27.68-16,20,34.64a8,8,0,1,0,13.92-8L155.6,287,256,204.16l3.28,5.68a8,8,0,1,0,13.92-8l-8-13.84a8.11,8.11,0,0,0-12.08-2.16l-112,92.32L107,297.84a32,32,0,0,0-14.72,36.24l-8,4.56a24,24,0,0,0,12,44.8,24.51,24.51,0,0,0,12-3.2l8-4.56a31.06,31.06,0,0,0,14,8.32,30.54,30.54,0,0,0,8.4,1.12,31.57,31.57,0,0,0,16-4.32l7-4,16,27.76a24,24,0,1,0,41.53-24v0L204.64,355.2l120-45a8,8,0,0,0,4.16-11.44ZM100,366.32a8,8,0,1,1-8-13.84l7-4,8,13.84Zm105.28,22.4a8,8,0,0,1-13.84,8l-16-27.76,13.28-7.6h.64Z" transform="translate(-16 -8)"/></svg>