<svg id="Capa_2" data-name="Capa 2" xmlns="http://www.w3.org/2000/svg" viewBox="0 0 602 602"><defs><style>.cls-1{fill:#f48aa0;}.cls-2,.cls-4{fill:none;stroke:#fff;stroke-miterlimit:10;}.cls-2{stroke-width:21px;}.cls-3{fill:#fff;}.cls-4{stroke-width:15px;}</style></defs><title>summary</title><circle class="cls-1" cx="301" cy="301" r="301"/><path class="cls-1" d="M146,141V496s-6,21,20,21" transform="translate(-22 -24)"/><path class="cls-1" d="M62,188" transform="translate(-22 -24)"/><path class="cls-2" d="M407,354V500.57A18.49,18.49,0,0,1,388.57,519H164.43A18.49,18.49,0,0,1,146,500.57V162.43A18.49,18.49,0,0,1,164.43,144H388.57A18.49,18.49,0,0,1,407,162.43V271.71" transform="translate(-22 -24)"/><rect class="cls-3" x="172" y="155" width="164" height="18" rx="9"/><rect class="cls-3" x="172" y="212" width="164" height="18" rx="9"/><rect class="cls-3" x="173" y="270" width="132" height="18" rx="9"/><rect class="cls-3" x="172" y="327" width="82" height="18" rx="9"/><rect class="cls-3" x="172" y="383" width="44" height="18" rx="9"/><rect class="cls-3" x="173" y="442" width="164" height="18" rx="9"/><path class="cls-4" d="M398.4,279.93,448,230s8-12,20-1a303.09,303.09,0,0,1,23,24s11,7-3,21S337,423,337,423l-59.2,19.1a1.47,1.47,0,0,1-1.83-1.88L296,383,398.4,279.93" transform="translate(-22 -24)"/><rect class="cls-3" x="282.72" y="394" width="66.56" height="18" rx="9" transform="translate(342.16 -130.85) rotate(43.5)"/><rect class="cls-3" x="418.34" y="258" width="69.31" height="18" rx="9" transform="translate(297.23 -265.53) rotate(44.75)"/></svg>